<svg height="16" viewBox="0 0 100 100" width="16" xmlns="http://www.w3.org/2000/svg"><g fill="#e0e0e0" stroke-width="23.622"><path d="m43.92 0-.17 6.25h-6.25v6.25h6.25c0 34.57-31.25 37.5-31.25 50v18.75c0 6.25 11.1 18.75 12.5 18.75h56.25c1.48 0 12.5-12.5 12.5-18.75v-18.75c0-12.5-31.25-15.33-31.25-50h6.25v-6.25h-6.25l.06-6.25zm18.58 43.75c-6.25 6.25-6.25 6.25-6.25 12.5 24.9257-12.4629 22.323 41.9596-3.13 25-25.4468 16.9736-27.9963-37.4382-3.12-25 0-2.7899 1.2454-5.5799 3.1802-7.8138-2.3252.729-7.5192-.049-9.4302-1.8581 2.0556-1.9857 9.0725-4.1573 11.2607.0792 2.1765-1.7783 4.8329-2.9073 7.4893-2.9073z"/><path d="m25 18.68a18.75 18.75 0 0 0 -18.75 18.75 18.75 18.75 0 0 0 18.75 18.75 18.75 18.75 0 0 0 18.75-18.75 18.75 18.75 0 0 0 -18.75-18.75zm0 12.63a6.25 6.18 0 0 1 6.25 6.19 6.25 6.18 0 0 1 -6.25 6.18 6.25 6.18 0 0 1 -6.25-6.18 6.25 6.18 0 0 1 6.25-6.19z"/></g></svg>