<svg height="16" viewBox="0 0 100 100" width="16" xmlns="http://www.w3.org/2000/svg"><g fill="#fff" stroke-width="23.622"><path d="m43.92 0-.17 6.25h-6.25v6.25h6.25c0 34.57-31.25 37.5-31.25 50v18.75c0 6.25 11.1 18.75 12.5 18.75h56.25c1.48 0 12.5-12.5 12.5-18.75v-18.75c0-12.5-31.25-15.33-31.25-50h6.25v-6.25h-6.25l.06-6.25zm6.08 43.75h12.5l-6.25 6.25v6.25c12.5-6.25 18.71 7.96 18.75 15.63 0 8.62-12.5 15.62-21.88 9.37-9.37 6.25-21.87-.75-21.87-9.37.02-7.52 6.25-21.88 18.75-15.63z"/><path d="m25 18.68a18.75 18.75 0 0 0 -18.75 18.75 18.75 18.75 0 0 0 18.75 18.75 18.75 18.75 0 0 0 18.75-18.75 18.75 18.75 0 0 0 -18.75-18.75zm0 12.63a6.25 6.18 0 0 1 6.25 6.19 6.25 6.18 0 0 1 -6.25 6.18 6.25 6.18 0 0 1 -6.25-6.18 6.25 6.18 0 0 1 6.25-6.19z"/></g></svg>